<svg width="40" height="40" viewBox="0 0 40 40" fill="none" xmlns="http://www.w3.org/2000/svg">
<path d="M20 3.75C11.0256 3.75 3.75 11.0256 3.75 20C3.75 27.6731 9.07 34.1 16.2219 35.8037C15.8519 35.7156 15.485 35.6169 15.125 35.5044V31.7812C15.125 31.7812 14.5156 31.9844 13.7031 31.9844C11.43 31.9844 10.4856 29.9562 10.25 28.9375C10.1069 28.3169 9.73312 27.7288 9.33187 27.3694C8.8525 26.9419 8.62813 26.9406 8.625 26.7944C8.61875 26.4875 9.03625 26.5 9.23438 26.5C10.25 26.5 11.02 27.5806 11.3775 28.1394C12.2631 29.5187 13.2137 29.75 13.7031 29.75C14.3125 29.75 14.8387 29.6588 15.2013 29.4837C15.3688 28.3037 15.8937 27.2525 16.75 26.5C12.9394 25.7381 10.25 23.5525 10.25 20C10.25 18.17 10.9844 16.4881 12.2081 15.13C12.0831 14.7756 11.875 14.0588 11.875 12.8906C11.875 12.1187 11.9288 11.1712 12.2812 10.25C12.2812 10.25 14.5988 10.2663 16.7844 12.3363C17.7931 12.0425 18.8725 11.875 20 11.875C21.1275 11.875 22.2069 12.0425 23.2156 12.3363C25.4013 10.2663 27.7188 10.25 27.7188 10.25C28.0731 11.1712 28.125 12.1187 28.125 12.8906C28.125 14.15 27.9575 14.8844 27.855 15.2013C29.0413 16.5469 29.75 18.2025 29.75 20C29.75 23.5525 27.0606 25.7381 23.25 26.5C24.2675 27.3938 24.875 28.6956 24.875 30.1562V35.5044C24.515 35.6175 24.1487 35.7156 23.7781 35.8037C30.93 34.1 36.25 27.6731 36.25 20C36.25 11.0256 28.9744 3.75 20 3.75ZM21.1331 36.2062C20.7587 36.2325 20.3813 36.25 20 36.25C20.3813 36.25 20.7581 36.2319 21.1331 36.2062ZM20 36.25C19.6187 36.25 19.2413 36.2325 18.8669 36.2062C19.2419 36.2319 19.6187 36.25 20 36.25ZM18.6175 36.1875C17.8569 36.1231 17.1106 36.0069 16.3838 35.8413C17.1113 36.0063 17.8569 36.1231 18.6175 36.1875Z" fill="white"/>
</svg>
