<svg width="30" height="30" viewBox="0 0 34 34" fill="none" xmlns="http://www.w3.org/2000/svg">
<path d="M29.8 0.200012H4.20001C1.99201 0.200012 0.200012 1.99201 0.200012 4.20001V29.8C0.200012 32.008 1.99201 33.8 4.20001 33.8H29.8C32.008 33.8 33.8 32.008 33.8 29.8V4.20001C33.8 1.99201 32.008 0.200012 29.8 0.200012ZM10.6 13V28.2H5.80001V13H10.6ZM5.80001 8.57601C5.80001 7.45601 6.76001 6.60001 8.20001 6.60001C9.64001 6.60001 10.544 7.45601 10.6 8.57601C10.6 9.69601 9.70401 10.6 8.20001 10.6C6.76001 10.6 5.80001 9.69601 5.80001 8.57601ZM28.2 28.2H23.4C23.4 28.2 23.4 20.792 23.4 20.2C23.4 18.6 22.6 17 20.6 16.968H20.536C18.6 16.968 17.8 18.616 17.8 20.2C17.8 20.928 17.8 28.2 17.8 28.2H13V13H17.8V15.048C17.8 15.048 19.344 13 22.448 13C25.624 13 28.2 15.184 28.2 19.608V28.2Z" fill="white"/>
</svg>
