<svg width="177" height="31" viewBox="0 0 177 31" fill="none" xmlns="http://www.w3.org/2000/svg">
<path d="M0.68 30V0.799999H6.36V30H0.68ZM13.2069 30V8.28H17.6069V17.48H17.4869C17.4869 14.36 18.1535 12 19.4869 10.4C20.8202 8.8 22.7802 8 25.3669 8H26.1669V12.84H24.6469C22.7802 12.84 21.3269 13.3467 20.2869 14.36C19.2735 15.3467 18.7669 16.7867 18.7669 18.68V30H13.2069ZM30.5238 30V7.76C30.5238 5.28 31.2038 3.45333 32.5638 2.28C33.9504 1.08 35.9904 0.479999 38.6838 0.479999H41.4038V4.76H38.2838C37.4571 4.76 36.8171 4.98667 36.3638 5.44C35.9371 5.86667 35.7238 6.48 35.7238 7.28V30H30.5238ZM27.8038 12.72V8.64H41.7638V12.72H27.8038ZM58.32 30V23.56H57.4V16.4C57.4 15.1467 57.0933 14.2133 56.48 13.6C55.8667 12.9867 54.92 12.68 53.64 12.68C52.9733 12.68 52.1733 12.6933 51.24 12.72C50.3067 12.7467 49.36 12.7867 48.4 12.84C47.4667 12.8667 46.6267 12.9067 45.88 12.96V8.24C46.4933 8.18667 47.1867 8.13333 47.96 8.08C48.7333 8.02667 49.52 8 50.32 8C51.1467 7.97333 51.92 7.96 52.64 7.96C54.88 7.96 56.7333 8.25333 58.2 8.84C59.6933 9.42667 60.8133 10.3467 61.56 11.6C62.3333 12.8533 62.72 14.4933 62.72 16.52V30H58.32ZM51.32 30.56C49.7467 30.56 48.36 30.28 47.16 29.72C45.9867 29.16 45.0667 28.36 44.4 27.32C43.76 26.28 43.44 25.0267 43.44 23.56C43.44 21.96 43.8267 20.6533 44.6 19.64C45.4 18.6267 46.5067 17.8667 47.92 17.36C49.36 16.8533 51.04 16.6 52.96 16.6H58V19.92H52.88C51.6 19.92 50.6133 20.24 49.92 20.88C49.2533 21.4933 48.92 22.2933 48.92 23.28C48.92 24.2667 49.2533 25.0667 49.92 25.68C50.6133 26.2933 51.6 26.6 52.88 26.6C53.6533 26.6 54.36 26.4667 55 26.2C55.6667 25.9067 56.2133 25.4267 56.64 24.76C57.0933 24.0667 57.3467 23.1333 57.4 21.96L58.76 23.52C58.6267 25.04 58.2533 26.32 57.64 27.36C57.0533 28.4 56.2267 29.2 55.16 29.76C54.12 30.2933 52.84 30.56 51.32 30.56ZM68.6756 30V8.28H73.0756V17.6H72.6756C72.6756 15.3867 72.969 13.5467 73.5556 12.08C74.1423 10.5867 75.009 9.46667 76.1556 8.72C77.329 7.97333 78.7823 7.6 80.5156 7.6H80.7556C83.3423 7.6 85.3023 8.44 86.6356 10.12C87.969 11.7733 88.6356 14.2533 88.6356 17.56V30H83.0756V17.08C83.0756 15.7467 82.689 14.6667 81.9156 13.84C81.169 13.0133 80.129 12.6 78.7956 12.6C77.4356 12.6 76.329 13.0267 75.4756 13.88C74.649 14.7067 74.2356 15.8267 74.2356 17.24V30H68.6756Z" fill="white"/>
<path d="M93.7331 30V23.6H99.9731V30H93.7331ZM113.887 30.72C112.367 30.72 110.967 30.44 109.687 29.88C108.407 29.32 107.3 28.5333 106.367 27.52C105.433 26.5067 104.713 25.3333 104.207 24C103.7 22.64 103.447 21.1733 103.447 19.6V18.76C103.447 17.2133 103.687 15.76 104.167 14.4C104.673 13.04 105.367 11.8533 106.247 10.84C107.153 9.82667 108.233 9.04 109.487 8.48C110.767 7.89333 112.18 7.6 113.727 7.6C115.433 7.6 116.927 7.97333 118.207 8.72C119.513 9.44 120.553 10.5333 121.327 12C122.1 13.4667 122.527 15.3067 122.607 17.52L120.967 15.6V0.799999H126.527V30H122.127V20.76H123.087C123.007 22.9733 122.553 24.8267 121.727 26.32C120.9 27.7867 119.807 28.8933 118.447 29.64C117.113 30.36 115.593 30.72 113.887 30.72ZM115.127 26.04C116.22 26.04 117.22 25.8 118.127 25.32C119.033 24.8133 119.753 24.0933 120.287 23.16C120.847 22.2 121.127 21.08 121.127 19.8V18.2C121.127 16.92 120.847 15.8533 120.287 15C119.727 14.12 118.993 13.4533 118.087 13C117.18 12.52 116.193 12.28 115.127 12.28C113.927 12.28 112.86 12.5733 111.927 13.16C111.02 13.72 110.3 14.52 109.767 15.56C109.26 16.6 109.007 17.8133 109.007 19.2C109.007 20.5867 109.273 21.8 109.807 22.84C110.34 23.8533 111.06 24.64 111.967 25.2C112.9 25.76 113.953 26.04 115.127 26.04ZM142.575 30.76C140.709 30.76 139.069 30.44 137.655 29.8C136.269 29.16 135.109 28.3067 134.175 27.24C133.269 26.1467 132.575 24.9333 132.095 23.6C131.642 22.2667 131.415 20.9067 131.415 19.52V18.76C131.415 17.32 131.642 15.9333 132.095 14.6C132.575 13.24 133.269 12.04 134.175 11C135.109 9.93333 136.255 9.09333 137.615 8.48C138.975 7.84 140.549 7.52 142.335 7.52C144.682 7.52 146.642 8.04 148.215 9.08C149.815 10.0933 151.015 11.44 151.815 13.12C152.615 14.7733 153.015 16.56 153.015 18.48V20.48H133.775V17.08H149.535L147.815 18.76C147.815 17.3733 147.615 16.1867 147.215 15.2C146.815 14.2133 146.202 13.4533 145.375 12.92C144.575 12.3867 143.562 12.12 142.335 12.12C141.109 12.12 140.069 12.4 139.215 12.96C138.362 13.52 137.709 14.3333 137.255 15.4C136.829 16.44 136.615 17.6933 136.615 19.16C136.615 20.52 136.829 21.7333 137.255 22.8C137.682 23.84 138.335 24.6667 139.215 25.28C140.095 25.8667 141.215 26.16 142.575 26.16C143.935 26.16 145.042 25.8933 145.895 25.36C146.749 24.8 147.295 24.12 147.535 23.32H152.655C152.335 24.8133 151.722 26.12 150.815 27.24C149.909 28.36 148.749 29.2267 147.335 29.84C145.949 30.4533 144.362 30.76 142.575 30.76ZM161.825 30L155.025 8.28H160.745L167.265 30H161.825ZM163.465 30V25.44H169.345V30H163.465ZM165.665 30L171.265 8.28H176.625L170.745 30H165.665Z" fill="white"/>
<path d="M93.7331 30V23.6H99.9731V30H93.7331ZM113.887 30.72C112.367 30.72 110.967 30.44 109.687 29.88C108.407 29.32 107.3 28.5333 106.367 27.52C105.433 26.5067 104.713 25.3333 104.207 24C103.7 22.64 103.447 21.1733 103.447 19.6V18.76C103.447 17.2133 103.687 15.76 104.167 14.4C104.673 13.04 105.367 11.8533 106.247 10.84C107.153 9.82667 108.233 9.04 109.487 8.48C110.767 7.89333 112.18 7.6 113.727 7.6C115.433 7.6 116.927 7.97333 118.207 8.72C119.513 9.44 120.553 10.5333 121.327 12C122.1 13.4667 122.527 15.3067 122.607 17.52L120.967 15.6V0.799999H126.527V30H122.127V20.76H123.087C123.007 22.9733 122.553 24.8267 121.727 26.32C120.9 27.7867 119.807 28.8933 118.447 29.64C117.113 30.36 115.593 30.72 113.887 30.72ZM115.127 26.04C116.22 26.04 117.22 25.8 118.127 25.32C119.033 24.8133 119.753 24.0933 120.287 23.16C120.847 22.2 121.127 21.08 121.127 19.8V18.2C121.127 16.92 120.847 15.8533 120.287 15C119.727 14.12 118.993 13.4533 118.087 13C117.18 12.52 116.193 12.28 115.127 12.28C113.927 12.28 112.86 12.5733 111.927 13.16C111.02 13.72 110.3 14.52 109.767 15.56C109.26 16.6 109.007 17.8133 109.007 19.2C109.007 20.5867 109.273 21.8 109.807 22.84C110.34 23.8533 111.06 24.64 111.967 25.2C112.9 25.76 113.953 26.04 115.127 26.04ZM142.575 30.76C140.709 30.76 139.069 30.44 137.655 29.8C136.269 29.16 135.109 28.3067 134.175 27.24C133.269 26.1467 132.575 24.9333 132.095 23.6C131.642 22.2667 131.415 20.9067 131.415 19.52V18.76C131.415 17.32 131.642 15.9333 132.095 14.6C132.575 13.24 133.269 12.04 134.175 11C135.109 9.93333 136.255 9.09333 137.615 8.48C138.975 7.84 140.549 7.52 142.335 7.52C144.682 7.52 146.642 8.04 148.215 9.08C149.815 10.0933 151.015 11.44 151.815 13.12C152.615 14.7733 153.015 16.56 153.015 18.48V20.48H133.775V17.08H149.535L147.815 18.76C147.815 17.3733 147.615 16.1867 147.215 15.2C146.815 14.2133 146.202 13.4533 145.375 12.92C144.575 12.3867 143.562 12.12 142.335 12.12C141.109 12.12 140.069 12.4 139.215 12.96C138.362 13.52 137.709 14.3333 137.255 15.4C136.829 16.44 136.615 17.6933 136.615 19.16C136.615 20.52 136.829 21.7333 137.255 22.8C137.682 23.84 138.335 24.6667 139.215 25.28C140.095 25.8667 141.215 26.16 142.575 26.16C143.935 26.16 145.042 25.8933 145.895 25.36C146.749 24.8 147.295 24.12 147.535 23.32H152.655C152.335 24.8133 151.722 26.12 150.815 27.24C149.909 28.36 148.749 29.2267 147.335 29.84C145.949 30.4533 144.362 30.76 142.575 30.76ZM161.825 30L155.025 8.28H160.745L167.265 30H161.825ZM163.465 30V25.44H169.345V30H163.465ZM165.665 30L171.265 8.28H176.625L170.745 30H165.665Z" fill="url(#paint0_linear_33_13)"/>
<defs>
<linearGradient id="paint0_linear_33_13" x1="20.53" y1="3.0625" x2="46.8538" y2="72.5233" gradientUnits="userSpaceOnUse">
<stop stop-color="#FBE2A3"/>
<stop offset="0.5" stop-color="#FE8D89"/>
<stop offset="1" stop-color="#9390FC"/>
</linearGradient>
</defs>
</svg>
