<svg width="50" height="38" viewBox="0 0 50 38" fill="none" xmlns="http://www.w3.org/2000/svg">
<path d="M0 3.375C0 1.64648 1.39648 0.25 3.125 0.25H40.625C42.3535 0.25 43.75 1.64648 43.75 3.375C43.75 5.10352 42.3535 6.5 40.625 6.5H3.125C1.39648 6.5 0 5.10352 0 3.375ZM6.25 19C6.25 17.2715 7.64648 15.875 9.375 15.875H46.875C48.6035 15.875 50 17.2715 50 19C50 20.7285 48.6035 22.125 46.875 22.125H9.375C7.64648 22.125 6.25 20.7285 6.25 19ZM43.75 34.625C43.75 36.3535 42.3535 37.75 40.625 37.75H3.125C1.39648 37.75 0 36.3535 0 34.625C0 32.8965 1.39648 31.5 3.125 31.5H40.625C42.3535 31.5 43.75 32.8965 43.75 34.625Z" fill="white"/>
</svg>
