<svg width="70" height="70" viewBox="0 0 70 70" fill="none" xmlns="http://www.w3.org/2000/svg">
<path d="M59.7917 7.2915H10.2083L14.5833 56.8748L35 62.7082L55.4167 56.8748L59.7917 7.2915Z" fill="#0277BD"/>
<path d="M35 11.6665V58.1873L51.3333 53.5207L54.9792 11.6665H35Z" fill="#039BE5"/>
<path d="M48.2708 18.9585H35V24.7918H42.1458L41.7083 30.6252H35V36.4585H41.4167L40.9792 43.021L35 45.0627V51.1877L46.5208 47.396L47.5417 30.6252L48.2708 18.9585Z" fill="white"/>
<path d="M35 18.9585V24.7918H22.0208L21.5833 18.9585H35ZM28.2916 30.6252L28.5833 36.4585H35V30.6252H28.2916ZM28.875 39.3752H23.0416L23.4791 47.396L35 51.1877V45.0627L29.0208 43.021L28.875 39.3752Z" fill="#EEEEEE"/>
</svg>
