<svg width="70" height="70" viewBox="0 0 70 70" fill="none" xmlns="http://www.w3.org/2000/svg">
<path d="M37.9167 24.7917H26.25C20.6121 24.7917 16.0417 20.2212 16.0417 14.5833C16.0417 8.94542 20.6121 4.375 26.25 4.375H37.9167V24.7917Z" fill="#E64A19"/>
<path d="M36.4584 45.2082H26.25C20.6121 45.2082 16.0417 40.6378 16.0417 34.9998C16.0417 29.3619 20.6121 24.7915 26.25 24.7915H36.4584V45.2082Z" fill="#7C4DFF"/>
<path d="M26.25 65.6252C20.6121 65.6252 16.0417 61.0547 16.0417 55.4168C16.0417 49.7789 20.6121 45.2085 26.25 45.2085H36.4584V55.4168C36.4584 61.0547 31.8879 65.6252 26.25 65.6252Z" fill="#66BB6A"/>
<path d="M46.6666 24.7917H36.4583V4.375H46.6666C52.3046 4.375 56.875 8.94542 56.875 14.5833C56.875 20.2212 52.3046 24.7917 46.6666 24.7917Z" fill="#FF7043"/>
<path d="M46.6666 45.2082C52.3046 45.2082 56.875 40.6377 56.875 34.9998C56.875 29.3619 52.3046 24.7915 46.6666 24.7915C41.0287 24.7915 36.4583 29.3619 36.4583 34.9998C36.4583 40.6377 41.0287 45.2082 46.6666 45.2082Z" fill="#29B6F6"/>
</svg>
