<svg width="70" height="70" viewBox="0 0 70 70" fill="none" xmlns="http://www.w3.org/2000/svg">
<path d="M8.75 61.25V8.75H61.25V61.25H8.75Z" fill="#FFD600"/>
<path d="M43.0762 48.0479C44.0854 49.687 45.1821 51.2577 47.5052 51.2577C49.4564 51.2577 50.4802 50.2879 50.4802 48.9462C50.4802 47.3406 49.4214 46.7704 47.2748 45.8356L46.0979 45.3339C42.7014 43.8931 40.4425 42.0877 40.4425 38.2741C40.4425 34.7595 43.1331 32.085 47.3375 32.085C50.3314 32.085 52.4825 33.1218 54.0341 35.8372L50.3679 38.1808C49.5614 36.74 48.6893 36.1727 47.3375 36.1727C45.9579 36.1727 45.0843 37.0433 45.0843 38.1808C45.0843 39.5866 45.9593 40.1554 47.9791 41.026L49.156 41.5277C53.1591 43.2325 55.4166 44.9737 55.4166 48.8879C55.4166 53.1054 52.0858 55.4168 47.6146 55.4168C43.241 55.4168 40.7575 53.222 39.375 50.5052L43.0762 48.0479ZM26.18 48.1675C26.9179 49.4887 28.0393 50.5052 29.6523 50.5052C31.1952 50.5052 32.0833 49.8956 32.0833 47.5258V32.0835H36.9439V48.2725C36.9439 53.1827 34.0958 55.4168 29.9366 55.4168C26.1785 55.4168 23.466 52.8706 22.3606 50.5052L26.18 48.1675Z" fill="#000001"/>
</svg>
