<svg width="70" height="70" viewBox="0 0 70 70" fill="none" xmlns="http://www.w3.org/2000/svg">
<path d="M61.25 25.2293C61.25 55.1252 35 64.1668 35 64.1668C35 64.1668 8.75 55.1252 8.75 25.2293C8.75 21.5835 9.04167 18.521 9.33333 16.0418C9.77083 12.396 12.25 9.47933 15.75 8.60433C20.2708 7.29183 27.4167 5.8335 35 5.8335C42.5833 5.8335 49.7292 7.29183 54.3958 8.60433C57.8958 9.47933 60.375 12.5418 60.8125 16.0418C60.9583 18.521 61.25 21.7293 61.25 25.2293Z" fill="#5D4037"/>
<path d="M35 10.2085C42.1458 10.2085 48.8542 11.6668 53.2292 12.8335C54.9792 13.271 56.1458 14.7293 56.4375 16.6252C56.7292 19.396 56.875 22.3127 56.875 25.2293C56.875 47.9793 40.1042 57.1668 35 59.3543C29.8958 57.021 13.125 47.8335 13.125 25.2293C13.125 22.3127 13.2708 19.396 13.5625 16.6252C13.7083 14.7293 15.0208 13.271 16.7708 12.8335C21.1458 11.6668 27.8542 10.2085 35 10.2085ZM35 5.8335C27.4167 5.8335 20.2708 7.29183 15.6042 8.60433C12.25 9.47933 9.625 12.5418 9.33333 16.0418C9.04167 18.521 8.75 21.7293 8.75 25.2293C8.75 55.1252 35 64.1668 35 64.1668C35 64.1668 61.25 55.1252 61.25 25.2293C61.25 21.5835 60.9583 18.521 60.6667 16.0418C60.2292 12.396 57.75 9.47933 54.25 8.60433C49.7292 7.29183 42.5833 5.8335 35 5.8335Z" fill="#4CAF50"/>
<path d="M33.5417 40.8335H36.4583V52.5002H33.5417V40.8335Z" fill="#DCEDC8"/>
<path d="M35 14.5835C35 14.5835 26.25 21.8752 26.25 33.5418C26.25 41.1252 31.0625 45.9377 33.5417 48.1252L35 43.7502L36.4583 48.1252C38.9375 45.9377 43.75 41.1252 43.75 33.5418C43.75 21.8752 35 14.5835 35 14.5835Z" fill="#4CAF50"/>
<path d="M35 14.5835C35 14.5835 26.25 21.8752 26.25 33.5418C26.25 41.1252 31.0625 45.9377 33.5417 48.1252L35 43.7502V14.5835Z" fill="#81C784"/>
</svg>
