<svg width="70" height="70" viewBox="0 0 70 70" fill="none" xmlns="http://www.w3.org/2000/svg">
<path d="M27.6704 45.9377C27.6704 47.1452 26.6919 48.1252 25.4829 48.1252C24.274 48.1252 23.2954 47.1452 23.2954 45.9377V25.521C23.2954 24.5687 23.9123 23.7258 24.8194 23.4356C25.7308 23.1468 26.7181 23.4793 27.2679 24.2566L51.7344 58.825C59.2331 53.5341 64.1667 44.822 64.1667 35.0002C64.1667 18.9585 51.0417 5.8335 35 5.8335C18.9583 5.8335 5.83334 18.9585 5.83334 35.0002C5.83334 51.0418 18.9583 64.1668 35 64.1668C39.655 64.1668 44.0504 63.0337 47.9646 61.0722L27.6704 32.3985V45.9377ZM42.2538 24.0627C42.2538 22.8552 43.2323 21.8752 44.4413 21.8752C45.6502 21.8752 46.6288 22.8552 46.6288 24.0627V44.246L42.2538 38.0816V24.0627Z" fill="#0277BD"/>
</svg>
