<svg width="70" height="70" viewBox="0 0 70 70" fill="none" xmlns="http://www.w3.org/2000/svg">
<g clip-path="url(#clip0_84_243)">
<path d="M25.0892 27.8862L17.9331 31.8456C17.6648 31.9929 17.5 32.2671 17.5 32.5631V40.4862C17.5 40.7823 17.6648 41.055 17.9331 41.2037L25.0906 45.166C25.3575 45.3133 25.6885 45.3133 25.9554 45.166L33.1115 41.2037C33.3769 41.055 33.5417 40.7823 33.5417 40.4862V32.5631C33.5417 32.2671 33.3769 31.9943 33.1085 31.8456L25.954 27.8862C25.8198 27.8118 25.6696 27.7754 25.5208 27.7754C25.3706 27.7754 25.2219 27.8118 25.0877 27.8862M61.9077 35.0189L60.7148 35.6781C60.6696 35.7029 60.6433 35.7481 60.6433 35.7977V37.1189C60.6433 37.1685 60.671 37.2137 60.7148 37.2385L61.9077 37.8991C61.9529 37.9239 62.0069 37.9239 62.0521 37.8991L63.245 37.2385C63.2887 37.2137 63.3165 37.1685 63.3165 37.1189V35.7977C63.3165 35.7481 63.2887 35.7029 63.2435 35.6781L62.0506 35.0189C62.0287 35.0058 62.004 35 61.9792 35C61.9544 35 61.9296 35.0058 61.9077 35.0189Z" fill="#388E3C"/>
<path d="M52.1369 19.4893L48.6529 17.5454C48.5436 17.4841 48.4094 17.4856 48.3015 17.5497C48.1935 17.6139 48.1265 17.7291 48.1265 17.8545L48.125 29.597L44.9123 27.8193C44.7781 27.7449 44.6279 27.7085 44.4792 27.7085C44.3304 27.7085 44.1802 27.7449 44.0461 27.8193H44.0475L36.8915 31.7787C36.6231 31.926 36.4583 32.2001 36.4583 32.4947V40.4179C36.4583 40.7139 36.6231 40.9866 36.8915 41.1354L44.049 45.0976C44.3158 45.2449 44.6469 45.2449 44.9138 45.0976L52.0698 41.1354C52.3352 40.9881 52.5 40.7139 52.5 40.4179V20.1076C52.5 19.851 52.36 19.6147 52.1369 19.4893ZM47.9296 38.5847L44.6775 40.3858C44.5565 40.4529 44.4063 40.4529 44.2852 40.3858L41.0317 38.5847C40.9077 38.5176 40.8333 38.3922 40.8333 38.2581V34.656C40.8333 34.5218 40.9077 34.3979 41.0302 34.3293L44.2838 32.5297C44.345 32.4962 44.4106 32.4801 44.4792 32.4801C44.5477 32.4801 44.6148 32.4976 44.6761 32.5297L47.9281 34.3293C48.0506 34.3979 48.125 34.5233 48.125 34.6574V38.2595C48.125 38.3922 48.0506 38.5176 47.9296 38.5847Z" fill="#37474F"/>
<path d="M25.0892 27.8862L17.5 40.4862C17.5 40.7823 17.6648 41.055 17.9331 41.2037L25.0906 45.166C25.3575 45.3133 25.6885 45.3133 25.9554 45.166L33.5417 32.5631C33.5417 32.2671 33.3769 31.9943 33.1085 31.8456L25.954 27.8862C25.8198 27.8118 25.6696 27.7754 25.5208 27.7754C25.3706 27.7754 25.2219 27.8118 25.0877 27.8862" fill="#2E7D32"/>
<path d="M25.0892 27.8862L17.9331 31.8456C17.6648 31.9929 17.5 32.2671 17.5 32.5631L25.0892 45.166C25.356 45.3133 25.6871 45.3133 25.954 45.166L33.11 41.2037C33.3769 41.055 33.5417 40.7823 33.5417 40.4862L25.954 27.8862C25.8198 27.8118 25.6696 27.7754 25.5208 27.7754C25.3706 27.7754 25.2219 27.8118 25.0877 27.8862" fill="#4CAF50"/>
<path d="M69.5669 31.7787L62.4123 27.8193C62.2781 27.745 62.1279 27.7085 61.9792 27.7085C61.8304 27.7085 61.6802 27.745 61.546 27.8193L54.3915 31.7787C54.1246 31.926 53.9583 32.206 53.9583 32.5122V40.4033C53.9583 40.7081 54.1246 40.9895 54.3915 41.1368L61.549 45.0991C61.8173 45.2479 62.1454 45.2479 62.4138 45.0991L65.714 43.2718C66.0158 43.1041 66.0144 42.671 65.711 42.5047L58.5302 38.5862C58.4092 38.5177 58.3333 38.3908 58.3333 38.2537V34.6575C58.3333 34.5233 58.4063 34.3993 58.5229 34.3352L61.7823 32.5327H61.7808C61.8421 32.4991 61.9092 32.4831 61.9777 32.4831C62.0463 32.4831 62.1133 32.5006 62.1746 32.5327L65.434 34.3366C65.5506 34.4008 65.6235 34.5247 65.6235 34.6589V37.5931C65.6235 37.7185 65.6906 37.8352 65.8 37.8979C65.9094 37.9591 66.0435 37.9591 66.1529 37.8964L69.65 35.865C69.8658 35.7395 70 35.5077 70 35.2568V32.5152C70 32.2075 69.8337 31.926 69.5669 31.7787ZM15.6085 31.7787L8.45396 27.8193C8.31979 27.745 8.16958 27.7085 8.02083 27.7085C7.87208 27.7085 7.72188 27.745 7.58771 27.8193L0.433125 31.7787C0.16625 31.926 0 32.206 0 32.5122V43.3987C0 43.5241 0.0670833 43.6408 0.176458 43.7035C0.285833 43.7647 0.42 43.7647 0.529375 43.702L4.02646 41.6706C4.24229 41.5452 4.375 41.3133 4.375 41.0625V34.656C4.375 34.5218 4.44792 34.3979 4.56458 34.3337L7.82396 32.5312C7.88521 32.4977 7.95229 32.4816 8.02083 32.4816C8.08938 32.4816 8.15646 32.4991 8.21771 32.5312L11.4771 34.3352C11.5938 34.3993 11.6667 34.5233 11.6667 34.6575V41.0639C11.6667 41.3147 11.7994 41.5466 12.0167 41.672L15.5138 43.7035C15.6231 43.7662 15.7573 43.7662 15.8667 43.705C15.9746 43.6408 16.0417 43.5241 16.0417 43.3987V32.5137C16.0417 32.2075 15.8754 31.926 15.6085 31.7787Z" fill="#37474F"/>
</g>
<defs>
<clipPath id="clip0_84_243">
<rect width="70" height="70" fill="white"/>
</clipPath>
</defs>
</svg>
