<svg width="70" height="70" viewBox="0 0 70 70" fill="none" xmlns="http://www.w3.org/2000/svg">
<path d="M35 49.5832C16.1875 49.5832 1.45834 43.1665 1.45834 34.9998C1.45834 26.8332 16.1875 20.4165 35 20.4165C53.8125 20.4165 68.5417 26.8332 68.5417 34.9998C68.5417 43.1665 53.8125 49.5832 35 49.5832ZM35 23.3332C16.625 23.3332 4.37501 29.3123 4.37501 34.9998C4.37501 40.6873 16.625 46.6665 35 46.6665C53.375 46.6665 65.625 40.6873 65.625 34.9998C65.625 29.3123 53.375 23.3332 35 23.3332Z" fill="#80DEEA"/>
<path d="M22.0208 65.0415C20.5625 65.0415 19.3958 64.7499 18.2292 64.0207C11.0833 59.9374 12.9792 44.0415 22.3125 27.7082C26.6875 20.1249 32.0833 13.7082 37.3333 9.62486C43.0208 5.24986 48.125 3.93736 51.625 5.97903C55.2708 8.0207 56.5833 13.1249 55.7083 20.2707C54.8333 26.979 51.9167 34.854 47.5417 42.4374C43.1667 50.0207 37.7708 56.4374 32.5208 60.5207C28.7292 63.4374 25.0833 65.0415 22.0208 65.0415ZM47.9792 7.87486C45.6458 7.87486 42.5833 9.18736 39.2292 11.8124C34.2708 15.7499 29.1667 21.8749 24.9375 29.1665C15.75 45.0624 14.875 58.7707 19.6875 61.5415C22.1667 62.9999 26.25 61.6874 30.7708 58.1874C35.7292 54.2499 40.8333 48.1249 45.0625 40.8332C49.2917 33.5415 52.0625 26.104 52.9375 19.8332C53.6667 13.9999 52.7917 9.91653 50.3125 8.4582C49.5833 8.16653 48.8542 7.87486 47.9792 7.87486Z" fill="#80DEEA"/>
<path d="M48.125 65.0415C40.8333 65.0415 30.3333 56.1457 22.4583 42.2915C12.9792 25.9582 11.0833 10.0624 18.2292 5.97903C25.375 1.89569 38.2083 11.3749 47.6875 27.7082C52.0625 35.2915 54.9792 43.1665 55.8542 49.8749C56.875 57.0207 55.4167 61.979 51.7708 64.1665C50.6042 64.7499 49.4375 65.0415 48.125 65.0415ZM19.6875 8.45819C14.875 11.229 15.75 24.9374 24.9375 40.8332C34.125 56.729 45.5 64.3124 50.3125 61.5415C52.7917 60.0832 53.6667 55.9999 52.9375 50.1665C52.0625 43.8957 49.2917 36.4582 45.0625 29.1665C35.875 13.2707 24.5 5.68736 19.6875 8.45819Z" fill="#80DEEA"/>
<path d="M35 40.8332C38.2217 40.8332 40.8333 38.2215 40.8333 34.9998C40.8333 31.7782 38.2217 29.1665 35 29.1665C31.7783 29.1665 29.1667 31.7782 29.1667 34.9998C29.1667 38.2215 31.7783 40.8332 35 40.8332Z" fill="#80DEEA"/>
</svg>
